<svg id="technical" xmlns="http://www.w3.org/2000/svg" viewBox="0 0 215.02 89.59"><defs><style>.cls-1{fill:#fff;}</style></defs><g id="LOGO"><polygon class="cls-1" points="108.89 36.4 45.56 54.73 42.38 57.88 106.61 40.16 108.89 36.4"/><path class="cls-1" d="M157.3,19.69a55.65,55.65,0,0,1-5.56,3.61l-.18-.76a31.44,31.44,0,0,0,4.58-3h-9.47l.49-.83h9.92ZM142.22,28a13,13,0,0,0,6.92-5.47l.83-1.4h.92l-.84,1.4a14.69,14.69,0,0,1-7.73,6.27Z" transform="translate(-6.12 -6)"/><path class="cls-1" d="M142,29.38l-.2-1.59.27-.1a12.73,12.73,0,0,0,6.74-5.31l.93-1.59h1.8l-1.17,2a15.14,15.14,0,0,1-7.92,6.43Zm.62-1.1v0c.53-.23,1-.47,1.49-.71C143.65,27.84,143.15,28.06,142.63,28.28Zm7.56-6.73-.73,1.21a7.94,7.94,0,0,1-.5.78c.27-.37.53-.76.77-1.16l.49-.83Zm1.29,2.32-.35-1.52.25-.14a30.14,30.14,0,0,0,3.67-2.34h-9l.93-1.57h10.45l.33,1.56-.2.14a56.41,56.41,0,0,1-5.6,3.63Zm5.37-4.47-.47.39c-.45.36-.91.72-1.4,1.06.61-.41,1.23-.85,1.9-1.32Zm-9.52-.28h9.46v-.07h-9.41Z" transform="translate(-6.12 -6)"/><polygon class="cls-1" points="159.84 21.42 148.64 21.42 149.16 20.53 160.36 20.53 159.84 21.42"/><path class="cls-1" d="M166.17,27.79H154.09l1-1.64h12.08ZM155.41,27h10.33l.08-.13H155.49Z" transform="translate(-6.12 -6)"/><polygon class="cls-1" points="162.5 14.6 154.06 14.6 154.58 13.71 163.02 13.71 162.5 14.6"/><path class="cls-1" d="M168.83,21h-9.32l1-1.64h9.31Zm-8-.75h7.56l.07-.13h-7.55Z" transform="translate(-6.12 -6)"/><polygon class="cls-1" points="201.19 17.74 192.75 17.74 193.28 16.86 201.71 16.86 201.19 17.74"/><path class="cls-1" d="M207.52,24.11h-9.31l1-1.63h9.31Zm-8-.75h7.56l.08-.13h-7.56Z" transform="translate(-6.12 -6)"/><path class="cls-1" d="M182.93,19.71a27.89,27.89,0,0,1-12.94,9l0-1a24.88,24.88,0,0,0,11.81-8h-8.46l.49-.82h8.67Z" transform="translate(-6.12 -6)"/><path class="cls-1" d="M169.58,29.22l.1-1.78.25-.08A24.3,24.3,0,0,0,181,20.1h-8.3l.93-1.57h9.13l.58,1.24-.15.18A28.14,28.14,0,0,1,170.11,29ZM170.4,28v.13a27.23,27.23,0,0,0,12.1-8.48l0-.06-.32.38A25.22,25.22,0,0,1,170.4,28Zm3.65-8.65h8.3l0-.07h-8.22Z" transform="translate(-6.12 -6)"/><path class="cls-1" d="M190.79,27.7H182.2l5-8.37h8.58Zm-.47-.79,4-6.79h-6.73l-4,6.79Z" transform="translate(-6.12 -6)"/><path class="cls-1" d="M191,28.08h-9.46l5.4-9.13h9.46Zm-8.14-.75h7.71l4.51-7.62h-7.71Zm7.68,0h-7.6l4.46-7.55H195Zm-6.28-.76h5.85l3.58-6h-5.86Z" transform="translate(-6.12 -6)"/><polygon class="cls-1" points="0 78.88 13.54 73 38.16 49.56 43.67 36.87 0 78.88"/><path class="cls-1" d="M42.21,63.13C22.17,64.91,21.83,52,21.83,52l-1-1.22s.66,10.09,10,13.5a37,37,0,0,0,10.36,1.07Z" transform="translate(-6.12 -6)"/><polygon class="cls-1" points="37.13 65.9 47.48 41.05 43.12 44.82 48.59 32.03 55.1 26.04 59.61 26.04 43.19 65.31 37.13 65.9"/><path class="cls-1" d="M98.65,26.71l3.4-5.84s8.43-2.6,9.84-3.63Z" transform="translate(-6.12 -6)"/><path class="cls-1" d="M70.1,43l3.84,9.3L81.87,50,96.08,22.42c-1.18,1.82-7.44,6-7.44,6l-9,16.92L73.84,32.57H69.41l-9.94,24,6.4-1.86Z" transform="translate(-6.12 -6)"/><polygon class="cls-1" points="101.77 17.82 89.5 26.33 80.61 42.63 87.74 40.56 101.77 17.82"/><polygon class="cls-1" points="47.35 64.98 53.6 63.63 56.5 56.59 50.1 58.35 47.35 64.98"/><polygon class="cls-1" points="75.59 51.85 68.56 63.16 77.51 56.95 82.1 49.7 82.23 49.49 75.93 51.23 75.59 51.85"/><path class="cls-1" d="M70.88,95.59S106,38.23,117.36,18.87c2-3.38,9.32-8.24,14.61-5.55,0,0,4.55,1.81,3.51,8,0,0-1,5.69-5.18,5.62,0,0-4,.55-3.77-4.33a5.42,5.42,0,0,1,3.25-4.27s-.61-2-3.47,0a54,54,0,0,0-6.9,10L83.26,90s-8,2.08-12.38,5.57" transform="translate(-6.12 -6)"/><path class="cls-1" d="M136.12,23.75C138.69,18.87,135,14,135,14L137,11.52s5.42-.1,12.18-5.52L116.05,57.72s-6.42,9.26-3.54,11c0,0,4.68,1.27,12.57-11.5l1.23,2.14s-8.48,16-19.58,17.68a45,45,0,0,1-10.65-.2l30.3-50.09s4.78,4.5,8.85-1.5a16.73,16.73,0,0,0,.89-1.46" transform="translate(-6.12 -6)"/><path class="cls-1" d="M128.13,42.21l2.54-3.69,1.48-.29a26,26,0,0,0-2.83,3.62Z" transform="translate(-6.12 -6)"/><path class="cls-1" d="M127.21,42.89l3.24-4.71,2.75-.55-.77.85A25.63,25.63,0,0,0,129.66,42l-.07.15Zm3.69-4-1,1.48c.42-.53.88-1.09,1.26-1.53Z" transform="translate(-6.12 -6)"/><path class="cls-1" d="M154.27,48s1.88-10.84-6.41-10.95c-2.9,0-6.44,1.68-9.72,6.29-1.89,2.66-5.75,10-1.87,12.92,0,0,5.46,2.72,10.7-4.76a22.89,22.89,0,0,0,4-8.64s3.43,2.7,1.44,9.76c0,0-7.95,11.83-18.38,10.65,0,0-12.17-2.77-5.36-17.81,2.36-5.23,10.24-13.66,19.52-12.26,2.09.32,5.8,1.31,6.81,5,.65,2.37,1.11,6.57-.74,9.8" transform="translate(-6.12 -6)"/><path class="cls-1" d="M174.2,58l8.67-12.58-2.16,12.43a42.54,42.54,0,0,1,10.1,1.51s8.72-8.62,11-12c3-4.5,10.76-17.57,10.76-17.57,4-5.25,3.89-12.95,3.89-12.95C217.19,9.15,215,9.6,215,9.6c-.25,7.15-2.47,11.27-2.47,11.27C208.06,30,196.72,44,196.72,44l-5.87,5.43L193.42,31c-3.45-.84-10.53-.4-10.53-.4-4.51,7.55-18.12,23.37-18.12,23.37l8-23.37-7.76.59-9.62,23.6c-2.73,5.25-6.27,6.14-6.27,6.14a19.63,19.63,0,0,0,6.72-1.15c4.4-1.35,9.33-2,18.34-1.77" transform="translate(-6.12 -6)"/><path class="cls-1" d="M205.75,38.65s10.14,4.92,14.44,15h.64s-4.23-10.5-14-16.21l-1.13,1.3" transform="translate(-6.12 -6)"/><path class="cls-1" d="M154.17,34.25a11,11,0,0,1,1.91,2.64c.81-.12,2.56-.35,4.95-.62l1.05-2.66c-2.19,0-7.91.64-7.91.64" transform="translate(-6.12 -6)"/><path class="cls-1" d="M171.2,32.51l-2.16,3c2.47-.19,5.15-.35,7.92-.45l1.57-2.34c-1.89-.26-7.33-.22-7.33-.22" transform="translate(-6.12 -6)"/><path class="cls-1" d="M201.83,34.84c-2.7-1.44-10.25-2.14-10.25-2.14l-1,2.54a57,57,0,0,1,9.7,1.44Z" transform="translate(-6.12 -6)"/></g><path class="cls-1" d="M120.27,76.68l4.78-13.14h2.62l-4.78,13.14Z" transform="translate(-6.12 -6)"/><path class="cls-1" d="M135.67,76.68h-2.61v0l-2.45-8.4-3,8.38h-2.62l4.78-13.14h2.62v0l0,0,2.45,8.38,3-8.38h2.62Z" transform="translate(-6.12 -6)"/><path class="cls-1" d="M148,66.16h-2.77l-3.83,10.52H138.8l3.83-10.52h-2.77l.95-2.62H149Z" transform="translate(-6.12 -6)"/><path class="cls-1" d="M151.66,66.16l-1,2.65h4.47l-.95,2.62h-4.47l-1,2.64h5.54l-.95,2.61h-8.16l.95-2.61,1-2.64.95-2.62,1-2.65,1-2.62h8.16l-1,2.62Z" transform="translate(-6.12 -6)"/><path class="cls-1" d="M166.13,67.49a5.66,5.66,0,0,1-1.25,2,6.58,6.58,0,0,1-1.9,1.4l-.18,5.78v0H160l.18-5.25H159l-1.91,5.25h-2.62l4.78-13.14h4.33a3,3,0,0,1,1.42.32,2.42,2.42,0,0,1,.94.85,2.53,2.53,0,0,1,.39,1.25A3.59,3.59,0,0,1,166.13,67.49ZM160,68.88h1.4a1.91,1.91,0,0,0,1.12-.41,2.1,2.1,0,0,0,.76-1,1,1,0,0,0-.05-1,.91.91,0,0,0-.82-.4H161Z" transform="translate(-6.12 -6)"/><path class="cls-1" d="M170.81,76.68l0-2.41H167l-1.8,2.41h-2.8l9.76-13.14h1.27l.19,13.14Zm-2.07-4.76h2l0-2.63h0Z" transform="translate(-6.12 -6)"/><path class="cls-1" d="M180.25,74.05a4.32,4.32,0,0,0,1.31-.21,5.79,5.79,0,0,0,1.28-.56l2,1.26a10.33,10.33,0,0,1-2.69,1.58,7.68,7.68,0,0,1-2.89.58,4.89,4.89,0,0,1-2.33-.52,3.89,3.89,0,0,1-1.54-1.41,4.51,4.51,0,0,1-.64-2.08,6.31,6.31,0,0,1,.42-2.55,9.18,9.18,0,0,1,1.44-2.56,11.24,11.24,0,0,1,2.16-2.09,10.37,10.37,0,0,1,2.56-1.41,7.49,7.49,0,0,1,2.71-.52,4.93,4.93,0,0,1,2.47.58,3.78,3.78,0,0,1,1.54,1.58L185.14,67a2.5,2.5,0,0,0-.88-.56,3,3,0,0,0-1.16-.21,4.37,4.37,0,0,0-1.6.31,6.08,6.08,0,0,0-1.52.83,6.43,6.43,0,0,0-1.27,1.23,5.78,5.78,0,0,0-.88,1.51h0l0,.07a4,4,0,0,0-.22,1.51,2.58,2.58,0,0,0,.38,1.23,2.22,2.22,0,0,0,.91.83A2.87,2.87,0,0,0,180.25,74.05Z" transform="translate(-6.12 -6)"/><path class="cls-1" d="M196.52,66.16h-2.77l-3.83,10.52H187.3l3.83-10.52h-2.77l.95-2.62h8.16Z" transform="translate(-6.12 -6)"/><path class="cls-1" d="M193.59,76.68l4.78-13.14H201l-4.78,13.14Z" transform="translate(-6.12 -6)"/><path class="cls-1" d="M201.7,63.54h2.81l.11,7.4h0l5.48-7.4h2.8l-9.74,13.14h-1.27Z" transform="translate(-6.12 -6)"/><path class="cls-1" d="M214.64,66.16l-1,2.65h4.47l-1,2.62h-4.47l-.95,2.64h5.54l-.95,2.61H208.2l1-2.61,1-2.64.95-2.62,1-2.65.95-2.62h8.16l-.95,2.62Z" transform="translate(-6.12 -6)"/></svg>